<?xml version="1.0" encoding="UTF-8" standalone="no"?>
<!-- Generator: Adobe Illustrator 16.0.0, SVG Export Plug-In . SVG Version: 6.00 Build 0)  -->

<svg
   xmlns:dc="http://purl.org/dc/elements/1.1/"
   xmlns:cc="http://creativecommons.org/ns#"
   xmlns:rdf="http://www.w3.org/1999/02/22-rdf-syntax-ns#"
   xmlns:svg="http://www.w3.org/2000/svg"
   xmlns="http://www.w3.org/2000/svg"
   xmlns:sodipodi="http://sodipodi.sourceforge.net/DTD/sodipodi-0.dtd"
   xmlns:inkscape="http://www.inkscape.org/namespaces/inkscape"
   version="1.0"
   id="Layer_1"
   x="0px"
   y="0px"
   width="156.33099"
   height="25.148001"
   viewBox="0 0 156.33099 25.148"
   enable-background="new 0 0 161.57 28.35"
   xml:space="preserve"
   inkscape:version="0.91 r13725"
   sodipodi:docname="DTU_Findit_cropped.svg"><metadata
     id="metadata27"><rdf:RDF><cc:Work
         rdf:about=""><dc:format>image/svg+xml</dc:format><dc:type
           rdf:resource="http://purl.org/dc/dcmitype/StillImage" /><dc:title></dc:title></cc:Work></rdf:RDF></metadata><defs
     id="defs25" /><sodipodi:namedview
     pagecolor="#ffffff"
     bordercolor="#666666"
     borderopacity="1"
     objecttolerance="10"
     gridtolerance="10"
     guidetolerance="10"
     inkscape:pageopacity="0"
     inkscape:pageshadow="2"
     inkscape:window-width="1855"
     inkscape:window-height="1056"
     id="namedview23"
     showgrid="false"
     inkscape:zoom="10.258453"
     inkscape:cx="100.27609"
     inkscape:cy="14.175"
     inkscape:window-x="1985"
     inkscape:window-y="24"
     inkscape:window-maximized="1"
     inkscape:current-layer="Layer_1" /><g
     id="g3"
     transform="translate(-1.8,-1.7999993)"><path
       d="M 9.679,26.748 C 7.045,26.748 4.222,26.494 2.921,26.272 2.317,26.177 2,25.891 2,25.161 L 2,4.189 C 2,3.46 2.317,3.173 2.921,3.079 4.222,2.856 7.045,2.602 9.679,2.602 15.992,2.602 19.8,5.934 19.8,12.628 l 0,4.093 c 0,6.696 -3.808,10.027 -10.121,10.027 z m 4.695,-14.119 c 0,-4.283 -1.84,-5.426 -4.695,-5.426 -0.794,0 -1.809,0.032 -2.253,0.063 l 0,14.817 c 0.444,0.032 1.459,0.063 2.253,0.063 2.855,0 4.695,-1.143 4.695,-5.426 l 0,-4.091 z"
       id="path5"
       inkscape:connector-curvature="0"
       style="fill:#1d1d1b" /><path
       d="m 38.104,7.362 -5.14,0 0,18.466 c 0,0.349 -0.285,0.634 -0.635,0.634 l -4.156,0 c -0.349,0 -0.634,-0.285 -0.634,-0.634 l 0,-18.466 -5.172,0 c -0.35,0 -0.635,-0.254 -0.635,-0.603 l 0,-3.268 c 0,-0.349 0.285,-0.603 0.635,-0.603 l 15.736,0 c 0.35,0 0.667,0.254 0.667,0.603 l 0,3.269 c 10e-4,0.348 -0.316,0.602 -0.666,0.602 z"
       id="path7"
       inkscape:connector-curvature="0"
       style="fill:#1d1d1b" /><path
       d="m 50.826,26.748 c -5.045,0 -9.138,-1.904 -9.138,-9.138 l 0,-14.119 c 0,-0.349 0.285,-0.603 0.635,-0.603 l 4.156,0 c 0.349,0 0.635,0.254 0.635,0.603 l 0,14.119 c 0,3.236 0.856,4.601 3.712,4.601 2.856,0 3.744,-1.364 3.744,-4.601 l 0,-14.119 c 0,-0.349 0.285,-0.603 0.634,-0.603 l 4.125,0 c 0.35,0 0.666,0.254 0.666,0.603 l 0,14.119 c 0,7.234 -4.124,9.138 -9.169,9.138 z"
       id="path9"
       inkscape:connector-curvature="0"
       style="fill:#1d1d1b" /><path
       d="m 86.359,7.267 -6.441,0 c -1.491,0 -2.03,0.508 -2.03,2.158 l 0,2.855 8.218,0 c 0.349,0 0.634,0.285 0.634,0.634 l 0,3.015 c 0,0.349 -0.285,0.634 -0.634,0.634 l -8.218,0 0,9.266 c 0,0.349 -0.285,0.634 -0.635,0.634 l -4.124,0 c -0.35,0 -0.635,-0.285 -0.635,-0.634 l 0,-16.404 c 0,-5.774 3.648,-6.79 7.741,-6.79 3.427,0 5.014,0.254 6.124,0.412 0.443,0.063 0.635,0.223 0.635,0.635 l 0,2.95 c 0,0.349 -0.286,0.635 -0.635,0.635 z"
       id="path11"
       inkscape:connector-curvature="0"
       style="fill:#1d1d1b" /><path
       d="m 95.464,6.22 -4.125,0 c -0.349,0 -0.635,-0.285 -0.635,-0.635 l 0,-2.95 C 90.704,2.285 90.99,2 91.339,2 l 4.125,0 c 0.349,0 0.634,0.285 0.634,0.635 l 0,2.95 c 0,0.35 -0.285,0.635 -0.634,0.635 z m -0.127,20.242 -3.871,0 c -0.349,0 -0.635,-0.285 -0.635,-0.634 l 0,-16.911 c 0,-0.35 0.286,-0.635 0.635,-0.635 l 3.871,0 c 0.349,0 0.635,0.285 0.635,0.635 l 0,16.911 c 0,0.349 -0.286,0.634 -0.635,0.634 z"
       id="path13"
       inkscape:connector-curvature="0"
       style="fill:#1d1d1b" /><path
       d="m 114.849,26.462 -3.839,0 c -0.35,0 -0.635,-0.317 -0.635,-0.666 l 0,-10.566 c 0,-2.221 -0.412,-2.95 -2.348,-2.95 -0.921,0 -1.904,0.443 -2.983,1.015 l 0,12.501 c 0,0.349 -0.285,0.666 -0.634,0.666 l -3.84,0 c -0.349,0 -0.666,-0.317 -0.666,-0.666 l 0,-16.879 c 0,-0.35 0.286,-0.635 0.635,-0.635 l 3.554,0 c 0.349,0 0.634,0.285 0.634,0.635 l 0,0.761 c 1.746,-1.237 3.142,-1.649 5.172,-1.649 4.602,0 5.616,3.204 5.616,7.202 l 0,10.565 c 0,0.349 -0.318,0.666 -0.666,0.666 z"
       id="path15"
       inkscape:connector-curvature="0"
       style="fill:#1d1d1b" /><path
       d="m 133.472,25.923 c -1.809,0.444 -4.315,0.825 -6.759,0.825 -5.14,0 -7.963,-2.982 -7.963,-8.122 l 0,-2.476 c 0,-4.98 2.602,-8.122 7.963,-8.122 0.635,0 1.683,0.096 2.603,0.222 l 0,-5.488 c 0,-0.35 0.285,-0.635 0.634,-0.635 l 3.839,0 c 0.35,0 0.667,0.285 0.667,0.635 l 0,22.241 c -10e-4,0.508 -0.128,0.729 -0.984,0.92 z m -4.157,-13.485 c -0.762,-0.095 -1.841,-0.158 -2.603,-0.158 -2.253,0 -2.823,1.649 -2.823,3.87 l 0,2.476 c 0,2.252 0.57,3.902 2.823,3.902 1.048,0 1.999,-0.095 2.603,-0.19 l 0,-9.9 z"
       id="path17"
       inkscape:connector-curvature="0"
       style="fill:#1d1d1b" /><path
       d="m 143.02,6.22 -4.125,0 c -0.349,0 -0.635,-0.285 -0.635,-0.635 l 0,-2.95 C 138.26,2.285 138.546,2 138.895,2 l 4.125,0 c 0.349,0 0.635,0.285 0.635,0.635 l 0,2.95 c -0.001,0.35 -0.287,0.635 -0.635,0.635 z m -0.127,20.242 -3.87,0 c -0.35,0 -0.635,-0.285 -0.635,-0.634 l 0,-16.911 c 0,-0.35 0.285,-0.635 0.635,-0.635 l 3.87,0 c 0.35,0 0.635,0.285 0.635,0.635 l 0,16.911 c -0.001,0.349 -0.286,0.634 -0.635,0.634 z"
       id="path19"
       inkscape:connector-curvature="0"
       style="fill:#be2b31" /><path
       d="m 157.328,26.494 c -0.952,0.158 -1.587,0.254 -2.507,0.254 -3.49,0 -5.33,-0.92 -5.33,-5.426 l 0,-9.201 -2.538,-0.412 c -0.349,-0.063 -0.666,-0.317 -0.666,-0.666 l 0,-2.095 c 0,-0.349 0.317,-0.666 0.666,-0.666 l 2.538,0 0,-2.601 c 0,-0.35 0.285,-0.571 0.635,-0.635 l 3.871,-0.666 c 0.031,0 0.063,0 0.095,0 0.317,0 0.571,0.222 0.571,0.539 l 0,3.363 2.602,0 c 0.349,0 0.635,0.285 0.635,0.635 l 0,2.569 c 0,0.35 -0.286,0.635 -0.635,0.635 l -2.602,0 0,9.232 c 0,1.27 0.095,1.492 1.047,1.492 l 1.555,0 c 0.412,0 0.666,0.19 0.666,0.539 l 0,2.475 c 0,0.318 -0.223,0.572 -0.603,0.635 z"
       id="path21"
       inkscape:connector-curvature="0"
       style="fill:#be2b31" /></g></svg>